<svg preserveAspectRatio="none" data-bbox="11 2.881 156.243 177.115" xmlns="http://www.w3.org/2000/svg" viewBox="11 2.881 156.243 177.115" role="presentation" aria-hidden="true">
    <g>
        <path d="M165.062 45.385L99.817 3.633c-1.468-.939-3.571-1.004-5.098-.167C93.191 4.303 92 5.906 92 7.647V45H65.017c-15.021 0-28.885 5.753-38.862 16.532C16.445 72.023 11 86.009 11 101.246v73.983c0 2.633 2.368 4.767 5 4.767s5-2.134 5-4.767v-73.983C21 74.406 39.767 54 65.017 54H92v37.156c0 1.742 1.191 3.345 2.719 4.181.714.391 1.622.585 2.408.585.895 0 1.848-.252 2.629-.752l65.275-41.757a4.781 4.781 0 0 0 2.212-4.015 4.748 4.748 0 0 0-2.181-4.013zM102 82.447v-66.09L153.636 49.4 102 82.447z" fill="#FFF"></path>
    </g>
</svg>